<svg width="34" height="24" viewBox="0 0 34 24" fill="none" xmlns="http://www.w3.org/2000/svg">
<path d="M8 24C3.58172 24 0 20.4183 0 16C0 12.1408 2.73256 8.91991 6.36839 8.16652C7.61829 3.46456 11.9046 0 17 0C22.7603 0 27.4865 4.42771 27.9609 10.0654C31.3722 10.5337 34 13.46 34 17C34 20.866 30.866 24 27 24H17.5H8Z" fill="url(#paint0_linear_201_1623)" fill-opacity="0.6"/>
<path d="M6.67275 9.63531L7.58001 9.44731L7.81804 8.55187C8.89763 4.49061 12.6015 1.5 17 1.5C21.9741 1.5 26.0566 5.32381 26.4661 10.1912L26.5668 11.3881L27.7569 11.5515C30.4358 11.9192 32.5 14.2198 32.5 17C32.5 20.0376 30.0376 22.5 27 22.5H17.5H8C4.41015 22.5 1.5 19.5899 1.5 16C1.5 12.8662 3.7192 10.2473 6.67275 9.63531Z" stroke="url(#paint1_linear_201_1623)" stroke-opacity="0.6" stroke-width="3"/>
<defs>
<linearGradient id="paint0_linear_201_1623" x1="0" y1="0" x2="34.5704" y2="23.1482" gradientUnits="userSpaceOnUse">
<stop stop-color="white" stop-opacity="0.9"/>
<stop offset="1" stop-color="white" stop-opacity="0.4"/>
</linearGradient>
<linearGradient id="paint1_linear_201_1623" x1="0" y1="0" x2="29.0368" y2="21.7845" gradientUnits="userSpaceOnUse">
<stop stop-color="white" stop-opacity="0.9"/>
<stop offset="1" stop-color="white" stop-opacity="0.2"/>
</linearGradient>
</defs>
</svg>
