<svg width="45" height="32" viewBox="0 0 45 32" fill="none" xmlns="http://www.w3.org/2000/svg">
<path d="M10.5882 32C4.74051 32 0 27.2244 0 21.3333C0 16.1878 3.61663 11.8932 8.42875 10.8887C10.083 4.61941 15.756 0 22.5 0C30.124 0 36.3792 5.90361 37.007 13.4205C41.522 14.0449 45 17.9466 45 22.6667C45 27.8213 40.8521 32 35.7353 32H23.1618H10.5882Z" fill="url(#paint0_linear_190_799)" fill-opacity="0.6"/>
<path d="M8.73527 12.357L9.64262 12.1676L9.87911 11.2714C11.3657 5.63752 16.4606 1.5 22.5 1.5C29.3282 1.5 34.948 6.79001 35.5122 13.5454L35.6121 14.7419L36.8015 14.9064C40.5764 15.4284 43.5 18.6975 43.5 22.6667C43.5 27.0034 40.0132 30.5 35.7353 30.5H23.1618H10.5882C5.57936 30.5 1.5 26.4064 1.5 21.3333C1.5 16.9049 4.61172 13.2178 8.73527 12.357Z" stroke="url(#paint1_linear_190_799)" stroke-opacity="0.6" stroke-width="3"/>
<defs>
<linearGradient id="paint0_linear_190_799" x1="0" y1="0" x2="45.9634" y2="30.5506" gradientUnits="userSpaceOnUse">
<stop stop-color="white" stop-opacity="0.9"/>
<stop offset="1" stop-color="white" stop-opacity="0.4"/>
</linearGradient>
<linearGradient id="paint1_linear_190_799" x1="0" y1="0" x2="38.6349" y2="28.7723" gradientUnits="userSpaceOnUse">
<stop stop-color="white" stop-opacity="0.9"/>
<stop offset="1" stop-color="white" stop-opacity="0.2"/>
</linearGradient>
</defs>
</svg>
