<svg width="66" height="46" viewBox="0 0 66 46" fill="none" xmlns="http://www.w3.org/2000/svg">
<path d="M15.5294 46C6.95275 46 0 39.135 0 30.6667C0 23.2699 5.30439 17.0965 12.3622 15.6525C14.7885 6.6404 23.1088 0 33 0C44.1818 0 53.3562 8.48644 54.277 19.292C60.899 20.1896 66 25.7983 66 32.5833C66 39.9932 59.9163 46 52.4118 46H33.9706H15.5294Z" fill="url(#paint0_linear_157_1671)" fill-opacity="0.6"/>
<path d="M12.6628 17.122L13.5699 16.9365L13.8106 16.0424C16.062 7.68 23.7925 1.5 33 1.5C43.4119 1.5 51.9285 9.39913 52.7824 19.4194L52.8844 20.617L54.0755 20.7784C59.9784 21.5785 64.5 26.5735 64.5 32.5833C64.5 39.1468 59.1059 44.5 52.4118 44.5H33.9706H15.5294C7.76316 44.5 1.5 38.2887 1.5 30.6667C1.5 24.0095 6.27632 18.4287 12.6628 17.122Z" stroke="url(#paint1_linear_157_1671)" stroke-opacity="0.6" stroke-width="3"/>
<defs>
<linearGradient id="paint0_linear_157_1671" x1="0" y1="0" x2="66.5767" y2="45.1496" gradientUnits="userSpaceOnUse">
<stop stop-color="white" stop-opacity="0.9"/>
<stop offset="1" stop-color="white" stop-opacity="0.4"/>
</linearGradient>
<linearGradient id="paint1_linear_157_1671" x1="0" y1="0" x2="55.8478" y2="42.435" gradientUnits="userSpaceOnUse">
<stop stop-color="white" stop-opacity="0.9"/>
<stop offset="1" stop-color="white" stop-opacity="0.2"/>
</linearGradient>
</defs>
</svg>
