<svg width="140" height="16" viewBox="0 0 140 16" fill="none" xmlns="http://www.w3.org/2000/svg">
<path d="M0 2C0 0.895431 0.895431 0 2 0H30C31.1046 0 32 0.895431 32 2V14C32 15.1046 31.1046 16 30 16H2C0.895431 16 0 15.1046 0 14V2Z" fill="#FAFAFA"/>
<path fill-rule="evenodd" clip-rule="evenodd" d="M21.4442 4.96515C21.0594 4.8212 20.4563 4.6665 19.7029 4.6665C17.783 4.6665 16.4302 5.63033 16.4189 7.01074C16.4084 8.03226 17.3843 8.60099 18.1216 8.9415C18.8776 9.28908 19.1322 9.51137 19.1282 9.82218C19.1234 10.2984 18.5246 10.5159 17.9661 10.5159C17.1882 10.5159 16.7753 10.4087 16.1371 10.1435L15.8865 10.0303L15.6137 11.6209C16.0681 11.8188 16.9067 11.9911 17.7782 11.9998C19.8209 11.9998 21.1471 11.0473 21.1618 9.57274C21.1689 8.76446 20.6516 8.14934 19.5309 7.64282C18.8512 7.31391 18.4355 7.09417 18.44 6.76158C18.44 6.46689 18.7916 6.15042 19.5522 6.15042C20.1884 6.14052 20.6482 6.27882 21.0066 6.42305L21.1811 6.5045L21.4442 4.96515ZM12.4549 11.8944L13.6698 4.79039H15.6127L14.3972 11.8944H12.4549ZM24.9259 4.79734H26.4274L27.9999 11.8962H26.1967C26.1967 11.8962 26.0187 11.0806 25.9606 10.832C25.8104 10.832 25.1841 10.8312 24.5949 10.8305L24.5935 10.8305L24.5928 10.8305L24.5909 10.8305L24.5811 10.8304C24.0626 10.8298 23.5759 10.8292 23.472 10.8292C23.3965 11.0212 23.0631 11.8962 23.0631 11.8962H21.0223L23.9079 5.38644C24.1128 4.92347 24.4604 4.79734 24.9259 4.79734ZM24.0308 9.3761C24.1917 8.96687 24.8053 7.38991 24.8053 7.38991C24.7996 7.39915 24.8374 7.30135 24.889 7.16782L24.889 7.1676C24.9431 7.02757 25.0124 6.84832 25.0626 6.712L25.1938 7.32458C25.1938 7.32458 25.5661 9.02004 25.6441 9.3761H24.0308ZM8.9231 9.63986L10.8251 4.79556H12.8831L9.82442 11.8857L7.76836 11.8885L6.0293 5.67511C7.26265 6.29051 8.36631 7.52018 8.72019 8.65539L8.9231 9.63986Z" fill="#1B2A47"/>
<path fill-rule="evenodd" clip-rule="evenodd" d="M7.1583 4.79102H4.02469L4 4.93864C6.43776 5.52718 8.05082 6.94803 8.72028 8.65565L8.0389 5.39058C7.92141 4.94062 7.58001 4.80657 7.1583 4.79102Z" fill="#F9A51A"/>
<path d="M36 2C36 0.895431 36.8954 0 38 0H66C67.1046 0 68 0.895431 68 2V14C68 15.1046 67.1046 16 66 16H38C36.8954 16 36 15.1046 36 14V2Z" fill="#FAFAFA"/>
<path fill-rule="evenodd" clip-rule="evenodd" d="M55.8712 14C59.2562 14 62.0003 11.3137 62.0003 8C62.0003 4.68629 59.2562 2 55.8712 2C52.4862 2 49.7422 4.68629 49.7422 8C49.7422 11.3137 52.4862 14 55.8712 14Z" fill="#F79E1B"/>
<path fill-rule="evenodd" clip-rule="evenodd" d="M48.129 14C51.514 14 54.2581 11.3137 54.2581 8C54.2581 4.68629 51.514 2 48.129 2C44.7441 2 42 4.68629 42 8C42 11.3137 44.7441 14 48.129 14Z" fill="#EB001B"/>
<path fill-rule="evenodd" clip-rule="evenodd" d="M52.0001 3.34814C50.6221 4.44837 49.7422 6.12366 49.7422 8.00015C49.7422 9.87665 50.6221 11.5519 52.0001 12.6522C53.3781 11.5519 54.2581 9.87665 54.2581 8.00015C54.2581 6.12366 53.3781 4.44837 52.0001 3.34814Z" fill="#FF5F00"/>
<path d="M72 2C72 0.895431 72.8954 0 74 0H102C103.105 0 104 0.895431 104 2V14C104 15.1046 103.105 16 102 16H74C72.8954 16 72 15.1046 72 14V2Z" fill="#FAFAFA"/>
<path fill-rule="evenodd" clip-rule="evenodd" d="M80 16C80 16 88.8773 14.3605 94.6591 11.9184C100.417 9.69639 104 7 104 7V16H80Z" fill="#F16822"/>
<path fill-rule="evenodd" clip-rule="evenodd" d="M97.7012 6.0918H99.0285C99.4521 6.0918 100.295 6.30775 100.295 7.2119C100.295 8.11698 99.4236 8.30425 99.4236 8.30425L100.667 9.8945H99.6784L98.5798 8.37678H98.4956V9.8945H97.7012V6.0918ZM98.4954 6.72579V7.83563H98.9327C99.2693 7.83563 99.4818 7.55205 99.4818 7.30415V7.25658C99.4818 7.00914 99.2693 6.72579 98.9327 6.72579H98.4954Z" fill="#1B2A47"/>
<path fill-rule="evenodd" clip-rule="evenodd" d="M90.6875 6.0918H91.5631L92.6839 8.58294L93.7403 6.0918H94.6161L92.9039 9.99105H92.3997L90.6875 6.0918Z" fill="#1B2A47"/>
<path fill-rule="evenodd" clip-rule="evenodd" d="M78.9863 9.8945H79.7997V6.0918H78.9863V9.8945Z" fill="#1B2A47"/>
<path fill-rule="evenodd" clip-rule="evenodd" d="M75.333 6.09131H76.6646C77.464 6.09131 78.6368 6.76971 78.6368 7.9754V7.9894V8.00362C78.6368 9.20955 77.464 9.88748 76.6646 9.88748H75.333V6.09131ZM76.0998 9.25479C76.0998 9.25479 77.809 9.43459 77.809 8.02181V7.99966C77.809 6.58664 76.0998 6.76668 76.0998 6.76668V9.25479Z" fill="#1B2A47"/>
<path fill-rule="evenodd" clip-rule="evenodd" d="M97.1102 7.59014V8.26085H95.7269V9.22331H97.1741V9.89401H94.9189V6.09131H97.1741V6.76202H95.7269V7.59014H97.1102Z" fill="#1B2A47"/>
<path fill-rule="evenodd" clip-rule="evenodd" d="M90.8308 8.01182C90.8308 9.10067 89.885 9.98314 88.7192 9.98314C87.5529 9.98314 86.6074 9.10067 86.6074 8.01182C86.6074 6.92273 87.5529 6.04004 88.7192 6.04004C89.885 6.04004 90.8308 6.92273 90.8308 8.01182Z" fill="#F16822"/>
<path fill-rule="evenodd" clip-rule="evenodd" d="M82.2941 6.96813C82.2941 6.96813 82.0261 6.68012 81.6663 6.68012C81.3071 6.68012 81.0996 6.90353 81.0996 7.06631C81.0996 7.22862 81.0929 7.32051 81.6061 7.52037C82.1198 7.72093 82.8747 7.86482 82.8747 8.71183C82.8747 9.55815 82.1645 9.98772 81.5259 9.98772C80.5185 9.98772 80.0654 9.2664 80.0654 9.2664L80.5724 8.79276C80.5724 8.79276 80.8938 9.29765 81.4545 9.29765C82.0149 9.29765 82.0461 8.8991 82.0461 8.76804C82.0461 8.57401 81.9255 8.38208 81.5793 8.26361C81.2332 8.14444 80.2867 8.02503 80.2867 7.17265C80.2867 6.40726 80.8993 6.02783 81.5861 6.02783C82.2 6.02783 82.7339 6.47653 82.7339 6.47653L82.2941 6.96813Z" fill="#1B2A47"/>
<path fill-rule="evenodd" clip-rule="evenodd" d="M86.2545 7.1264C86.0028 6.8834 85.6561 6.70686 85.266 6.70686C84.5013 6.70686 83.8815 7.28615 83.8815 7.99977C83.8815 8.71409 84.5013 9.29268 85.266 9.29268C85.6524 9.29268 86.004 9.118 86.2548 8.87943L86.2545 9.77449C85.9583 9.91931 85.6229 10 85.266 10C84.083 10 83.124 9.10471 83.124 7.99977C83.124 6.89529 84.083 6 85.266 6C85.6239 6 85.9581 6.08186 86.2545 6.22715V7.1264Z" fill="#1B2A47"/>
<path d="M108 2C108 0.895431 108.895 0 110 0H138C139.105 0 140 0.895431 140 2V14C140 15.1046 139.105 16 138 16H110C108.895 16 108 15.1046 108 14V2Z" fill="#FAFAFA"/>
<path fill-rule="evenodd" clip-rule="evenodd" d="M121.106 7.36325H122.726L120.303 2H118.431L116 7.36325H117.589L118.059 6.26776H120.636L121.106 7.36325ZM127.053 7.36325H125.798L124.307 3.39428V7.36325H122.88V2H125.173L126.446 5.41706L127.71 2H129.979V7.36325H128.553V3.39428L127.053 7.36325ZM123.638 8.63676V9.83964H120.462V10.7132H123.565V11.885H120.462V12.7971H123.638V14H119.019V8.63676H123.638ZM130 14H128.193L126.848 12.337L125.511 14H123.752L126.013 11.3257L123.744 8.63674H125.551L126.888 10.284L128.225 8.63674H129.984L127.715 11.2953L130 14ZM119.339 3.26417L118.553 5.10299H120.133L119.339 3.26417Z" fill="#006FAC"/>
</svg>
