<svg width="669" height="791" viewBox="0 0 669 791" fill="none" xmlns="http://www.w3.org/2000/svg">
<g clip-path="url(#clip0_1323_6842)">
<g filter="url(#filter0_ii_1323_6842)">
<path d="M74.8735 15.3966L4.58034 251.69C2.05069 260.193 5.92256 271.161 13.2284 276.186L350.818 508.4C358.124 513.426 366.097 510.606 368.627 502.103L438.92 265.809C441.449 257.306 437.578 246.339 430.272 241.313L92.6822 9.09889C85.3764 4.07349 77.4031 6.89309 74.8735 15.3966Z" fill="#2886C5"/>
<path d="M74.8735 15.3966L4.58034 251.69C2.05069 260.193 5.92256 271.161 13.2284 276.186L350.818 508.4C358.124 513.426 366.097 510.606 368.627 502.103L438.92 265.809C441.449 257.306 437.578 246.339 430.272 241.313L92.6822 9.09889C85.3764 4.07349 77.4031 6.89309 74.8735 15.3966Z" fill="url(#paint0_radial_1323_6842)"/>
</g>
<path opacity="0.48" d="M380.64 272.091C385.194 256.784 378.224 237.043 365.074 227.997C351.923 218.952 337.571 224.027 333.018 239.333C328.465 254.64 335.434 274.381 348.585 283.427C361.735 292.472 376.087 287.397 380.64 272.091Z" fill="white" fill-opacity="0.5"/>
<path opacity="0.7" d="M409.389 291.867C413.943 276.56 406.973 256.819 393.823 247.773C380.672 238.728 366.32 243.803 361.767 259.109C357.214 274.416 364.183 294.157 377.334 303.203C390.484 312.248 404.836 307.173 409.389 291.867Z" fill="white"/>
<g filter="url(#filter1_i_1323_6842)">
<path d="M137.193 147.664L101.211 122.914C97.802 120.569 94.0811 121.884 92.9006 125.853L85.2056 151.72C84.0251 155.688 85.832 160.806 89.2414 163.151L125.223 187.901C128.632 190.247 132.353 188.931 133.533 184.963L141.228 159.096C142.409 155.127 140.602 150.009 137.193 147.664Z" fill="url(#paint1_linear_1323_6842)"/>
</g>
<path d="M138.31 168.908L122.059 157.73C121.802 155.622 121.874 151.215 124.222 150.462M90.8399 132.556L107.274 143.861C109.421 140.857 114.626 135.205 118.273 136.628C119.375 138.003 121.759 141.863 122.473 146.3L90.8399 132.556ZM87.0029 145.455L103.436 156.759C101.536 163.146 105.044 171.183 107.036 174.403C111.611 175.675 117.009 170.37 119.136 167.558L135.386 178.736L87.0029 145.455Z" stroke="url(#paint2_linear_1323_6842)" stroke-width="0.772581"/>
<path d="M166.401 181.974C166.945 186.099 166.527 195.835 160.507 201.785M153.362 181.167C153.583 182.803 153.502 186.407 151.407 187.736L153.362 181.167ZM157.944 181.474C158.246 184.031 157.997 189.869 154.585 192.765L157.944 181.474ZM162.117 181.377C162.479 184.8 162.041 192.774 157.383 197.287L162.117 181.377Z" stroke="white" stroke-width="2.8328" stroke-linecap="round" stroke-linejoin="round"/>
<path d="M60.3656 252.492C59.8421 252.132 59.4056 251.683 59.0559 251.146C58.7097 250.597 58.4753 250.02 58.3526 249.414C58.2299 248.806 58.2421 248.215 58.3893 247.639L59.2835 244.633C59.4709 244.085 59.755 243.679 60.1357 243.419C60.5299 243.154 60.9718 243.035 61.4612 243.061C61.9607 243.094 62.4723 243.29 62.9958 243.65C63.6703 244.114 64.2169 244.723 64.6354 245.477C65.054 246.23 65.315 247.046 65.4183 247.921C65.5317 248.804 65.4629 249.667 65.2119 250.511C64.9643 251.342 64.5852 251.985 64.0744 252.439C63.5737 252.899 62.9991 253.139 62.3504 253.158C61.7018 253.178 61.0402 252.956 60.3656 252.492ZM60.651 250.126C61.0134 250.375 61.3635 250.503 61.7012 250.51C62.0424 250.504 62.339 250.383 62.5911 250.148C62.8567 249.907 63.0576 249.558 63.1935 249.101C63.326 248.656 63.3622 248.208 63.3022 247.758C63.2558 247.302 63.1195 246.883 62.8934 246.502C62.6707 246.109 62.3782 245.788 62.0158 245.538C61.6634 245.296 61.3166 245.177 60.9754 245.182C60.6378 245.177 60.3361 245.294 60.0705 245.534C59.8184 245.771 59.6261 246.111 59.4936 246.557C59.3576 247.013 59.3129 247.469 59.3594 247.925C59.4193 248.376 59.5556 248.794 59.7682 249.18C59.9943 249.562 60.2886 249.877 60.651 250.126ZM55.3145 253.082L58.8963 241.042L60.8745 242.403L60.2105 244.635L59.2665 246.463L58.9718 248.738L57.2777 254.433L55.3145 253.082ZM68.685 258.214C67.9198 257.688 67.296 257.033 66.8136 256.25C66.3346 255.455 66.0183 254.601 65.8646 253.691C65.721 252.788 65.7765 251.908 66.0309 251.053C66.2819 250.21 66.6712 249.573 67.1986 249.146C67.7396 248.713 68.3596 248.504 69.0585 248.519C69.761 248.523 70.4697 248.77 71.1845 249.262C71.8892 249.746 72.4526 250.36 72.8746 251.102C73.3102 251.839 73.5831 252.634 73.6935 253.487C73.8173 254.333 73.759 255.162 73.5185 255.97C73.4731 256.123 73.416 256.274 73.347 256.424C73.2917 256.569 73.2142 256.728 73.1147 256.899L66.9782 252.7L67.4907 250.977L72.706 254.543L71.6912 254.714C71.8209 254.195 71.8658 253.719 71.826 253.281C71.7962 252.852 71.6766 252.459 71.4671 252.104C71.2712 251.743 70.987 251.434 70.6145 251.178C70.2219 250.907 69.8482 250.778 69.4934 250.788C69.1422 250.786 68.8303 250.917 68.5577 251.182C68.2986 251.441 68.0941 251.822 67.9442 252.326C67.7908 252.842 67.7372 253.349 67.7832 253.846C67.8428 254.339 67.9973 254.798 68.2466 255.223C68.4995 255.638 68.8322 255.986 69.245 256.271C69.6176 256.527 69.9758 256.688 70.3196 256.756C70.667 256.811 70.995 256.768 71.3036 256.627L72.0638 258.781C71.5685 259.019 71.0276 259.084 70.4408 258.977C69.8642 258.877 69.2789 258.623 68.685 258.214ZM74.3142 261.875L77.8908 249.852L79.8692 251.213L76.2926 263.236L74.3142 261.875ZM74.532 254.233L75.1333 252.211L80.5246 255.92L79.9233 257.941L74.532 254.233ZM81.9328 267.327C81.2684 266.87 80.7269 266.265 80.3083 265.511C79.8898 264.757 79.6288 263.943 79.5255 263.067C79.4221 262.191 79.4943 261.337 79.7418 260.505C79.9927 259.662 80.3686 259.01 80.8693 258.55C81.3701 258.089 81.9447 257.849 82.5934 257.829C83.242 257.81 83.8985 258.029 84.5634 258.486C85.0869 258.846 85.5183 259.291 85.8573 259.821C86.1972 260.351 86.4216 260.922 86.5305 261.533C86.6535 262.139 86.6427 262.726 86.4989 263.29L85.5897 266.348C85.4019 266.897 85.1177 267.301 84.7371 267.563C84.3664 267.83 83.9368 267.95 83.4473 267.924C82.9611 267.886 82.4564 267.687 81.9328 267.327ZM82.928 265.45C83.4813 265.831 83.9924 265.927 84.4603 265.741C84.9315 265.543 85.2681 265.104 85.4709 264.424C85.603 263.979 85.6396 263.531 85.5789 263.081C85.5324 262.625 85.3961 262.207 85.1701 261.825C84.9581 261.439 84.6656 261.118 84.2925 260.862C83.9301 260.612 83.5786 260.491 83.237 260.496C82.9097 260.497 82.6131 260.617 82.3475 260.858C82.0953 261.094 81.9031 261.434 81.7706 261.88C81.6347 262.337 81.5899 262.792 81.6363 263.248C81.6963 263.699 81.8326 264.117 82.0452 264.503C82.2712 264.885 82.5655 265.2 82.928 265.45ZM84.0997 268.606L84.7795 266.321L85.7136 264.464L86.0028 262.208L86.6252 260.116L88.5882 261.466L86.0626 269.956L84.0997 268.606ZM91.8077 274.119C91.2841 273.759 90.8495 273.305 90.5029 272.756C90.1572 272.208 89.9245 271.624 89.8049 271.006C89.686 270.387 89.6985 269.796 89.8414 269.231L90.7415 266.208C90.9251 265.671 91.2077 265.273 91.5883 265.012C91.9822 264.747 92.4277 264.636 92.9238 264.681C93.4199 264.726 93.9244 264.925 94.438 265.279C95.112 265.742 95.6588 266.351 96.0777 267.105C96.4957 267.859 96.7566 268.673 96.8605 269.549C96.9735 270.431 96.9046 271.295 96.6536 272.138C96.4068 272.971 96.027 273.613 95.5167 274.066C95.0156 274.527 94.4413 274.766 93.7923 274.786C93.144 274.805 92.4825 274.583 91.8077 274.119ZM92.1077 271.765C92.4709 272.013 92.8158 272.138 93.1432 272.137C93.4839 272.132 93.7806 272.012 94.0333 271.775C94.2984 271.535 94.4995 271.186 94.6358 270.729C94.7679 270.283 94.8045 269.836 94.7438 269.385C94.6981 268.93 94.5618 268.511 94.3358 268.13C94.113 267.736 93.8205 267.415 93.4582 267.166C93.095 266.917 92.7435 266.795 92.4027 266.8C92.0745 266.801 91.7778 266.921 91.5127 267.162C91.26 267.398 91.0681 267.739 90.9359 268.184C90.7996 268.64 90.7548 269.097 90.8013 269.552C90.8611 270.003 91.0024 270.425 91.2251 270.818C91.4512 271.2 91.7454 271.515 92.1077 271.765ZM87.8128 271.16L91.5933 258.451L93.5712 259.812L91.6947 266.123L90.7556 267.933L90.4556 270.225L89.7758 272.511L87.8128 271.16ZM100.067 279.8C99.3312 279.295 98.7246 278.645 98.2459 277.85C97.7805 277.05 97.4705 276.194 97.3168 275.284C97.1772 274.369 97.2303 273.495 97.478 272.663C97.7256 271.831 98.1179 271.205 98.6556 270.784C99.1966 270.351 99.8216 270.146 100.53 270.168C101.244 270.178 101.962 270.433 102.687 270.931C103.432 271.444 104.037 272.1 104.502 272.9C104.982 273.695 105.292 274.544 105.436 275.448C105.583 276.34 105.533 277.202 105.286 278.034C105.038 278.865 104.643 279.503 104.097 279.948C103.556 280.38 102.93 280.591 102.218 280.581C101.519 280.566 100.801 280.306 100.067 279.8ZM100.689 277.646C101.062 277.902 101.417 278.034 101.755 278.039C102.106 278.041 102.408 277.925 102.66 277.688C102.926 277.447 103.124 277.104 103.257 276.659C103.389 276.214 103.426 275.766 103.365 275.315C103.305 274.865 103.162 274.449 102.936 274.067C102.714 273.674 102.416 273.349 102.044 273.093C101.681 272.844 101.329 272.722 100.988 272.727C100.651 272.721 100.351 272.832 100.088 273.061C99.8266 273.29 99.6288 273.628 99.4966 274.073C99.3645 274.518 99.3263 274.972 99.3828 275.434C99.4426 275.884 99.5839 276.307 99.8066 276.699C100.033 277.081 100.327 277.396 100.689 277.646ZM109.658 286.186L108.765 281.422L108.461 280.79L107.019 274.143L109.36 275.754L110.201 280.08L110.479 280.674L111.983 287.786L109.658 286.186ZM104.342 282.53L108.76 279.724L109.428 282.068L106.577 284.067L104.342 282.53ZM110.188 281.956L109.486 279.61L112.153 277.676L114.373 279.202L110.188 281.956Z" fill="white"/>
<g filter="url(#filter2_ii_1323_6842)">
<path d="M207.96 560.008L325.199 776.839C329.419 784.643 338.304 786.297 345.044 780.535L656.532 514.275C663.273 508.513 665.317 497.516 661.098 489.713L543.859 272.882C539.64 265.079 530.755 263.424 524.014 269.186L212.526 535.446C205.786 541.208 203.741 552.205 207.96 560.008Z" fill="#2886C5"/>
<path d="M207.96 560.008L325.199 776.839C329.419 784.643 338.304 786.297 345.044 780.535L656.532 514.275C663.273 508.513 665.317 497.516 661.098 489.713L543.859 272.882C539.64 265.079 530.755 263.424 524.014 269.186L212.526 535.446C205.786 541.208 203.741 552.205 207.96 560.008Z" fill="url(#paint3_radial_1323_6842)"/>
</g>
<path opacity="0.48" d="M519.75 345.138C512.155 331.093 496.162 328.115 484.029 338.487C471.895 348.858 468.215 368.653 475.809 382.699C483.404 396.744 499.397 399.722 511.53 389.35C523.664 378.979 527.344 359.184 519.75 345.138Z" fill="white" fill-opacity="0.5"/>
<path opacity="0.7" d="M546.277 322.463C538.683 308.417 522.69 305.439 510.556 315.811C498.422 326.183 494.742 345.978 502.337 360.023C509.931 374.069 525.924 377.047 538.058 366.675C550.192 356.303 553.871 336.509 546.277 322.463Z" fill="white"/>
<g filter="url(#filter3_i_1323_6842)">
<path d="M322.654 561.544L289.455 589.923C286.309 592.612 285.355 597.744 287.324 601.385L300.158 625.122C302.127 628.763 306.273 629.536 309.419 626.847L342.618 598.468C345.764 595.779 346.718 590.647 344.749 587.005L331.915 563.269C329.946 559.627 325.8 558.855 322.654 561.544Z" fill="url(#paint4_linear_1323_6842)"/>
</g>
<path d="M336.784 572.274L321.79 585.09C320.317 584.198 317.533 581.615 318.183 578.421M290.617 607.616L305.781 594.655C304.896 590.42 303.792 581.081 306.463 577.589C307.874 577.069 311.493 576.448 314.678 578.121L290.617 607.616ZM297.017 619.452L312.181 606.491C315.349 612.352 322.184 612.774 325.204 612.252C328.227 607.58 327.438 598.21 326.666 594.108L341.66 581.292L297.017 619.452Z" stroke="url(#paint5_linear_1323_6842)" stroke-width="0.772581"/>
<path d="M358.7 546.572C361.602 548.269 367.628 554.282 368.529 564.751M351.891 561.483C353.044 562.15 355.31 564.288 355.15 567.511L351.891 561.483ZM354.299 556.256C356.081 557.35 359.695 560.954 359.901 566.617L354.299 556.256ZM356.25 551.283C358.616 552.796 363.505 557.835 364.145 565.883L356.25 551.283Z" stroke="white" stroke-width="2.8328" stroke-linecap="round" stroke-linejoin="round"/>
<path d="M357.95 714.224C357.467 714.637 356.969 714.898 356.456 715.005C355.939 715.102 355.456 715.051 355.009 714.852C354.562 714.652 354.188 714.302 353.891 713.802L352.4 711.044C352.139 710.512 352.018 709.948 352.034 709.352C352.055 708.736 352.192 708.148 352.445 707.586C352.708 707.016 353.08 706.525 353.563 706.111C354.185 705.58 354.838 705.28 355.523 705.215C356.207 705.148 356.855 705.303 357.465 705.677C358.084 706.044 358.602 706.614 359.021 707.389C359.434 708.152 359.662 708.963 359.706 709.822C359.758 710.674 359.634 711.487 359.334 712.263C359.034 713.039 358.572 713.693 357.95 714.224ZM356.574 712.546C356.909 712.261 357.159 711.921 357.327 711.527C357.488 711.122 357.553 710.703 357.524 710.272C357.499 709.822 357.372 709.388 357.145 708.969C356.924 708.56 356.655 708.264 356.338 708.078C356.024 707.875 355.691 707.799 355.338 707.849C354.979 707.889 354.632 708.051 354.297 708.337C353.972 708.615 353.73 708.957 353.569 709.362C353.401 709.756 353.33 710.178 353.357 710.628C353.386 711.058 353.51 711.478 353.731 711.887C353.958 712.306 354.228 712.618 354.543 712.821C354.859 713.006 355.193 713.083 355.542 713.051C355.895 713.001 356.24 712.833 356.574 712.546ZM355.89 720.513L349.916 709.465L351.741 707.904L352.849 709.953L353.563 712.102L354.876 713.739L357.701 718.965L355.89 720.513ZM365.625 707.663C364.92 708.266 364.199 708.631 363.466 708.754C362.726 708.868 362.027 708.758 361.371 708.423C360.724 708.08 360.188 707.516 359.763 706.731C359.344 705.956 359.126 705.137 359.107 704.273C359.092 703.39 359.257 702.541 359.604 701.726C359.945 700.899 360.446 700.205 361.105 699.641C361.755 699.085 362.419 698.768 363.098 698.692C363.78 698.596 364.42 698.725 365.018 699.079C365.62 699.413 366.122 699.951 366.523 700.693C366.599 700.833 366.668 700.986 366.731 701.152C366.797 701.3 366.861 701.482 366.923 701.696L361.274 706.548L360.42 704.968L365.218 700.842L364.837 702.135C364.568 701.688 364.285 701.364 363.986 701.164C363.697 700.955 363.387 700.874 363.059 700.919C362.733 700.945 362.399 701.105 362.055 701.399C361.693 701.709 361.429 702.075 361.265 702.499C361.095 702.912 361.028 703.355 361.065 703.826C361.106 704.278 361.252 704.735 361.502 705.198C361.758 705.671 362.055 706.021 362.396 706.249C362.74 706.458 363.108 706.536 363.501 706.484C363.888 706.421 364.272 706.226 364.652 705.901C364.996 705.607 365.272 705.276 365.482 704.909C365.684 704.531 365.816 704.12 365.875 703.677L367.619 704.002C367.532 704.72 367.313 705.395 366.962 706.026C366.619 706.648 366.174 707.194 365.625 707.663ZM370.684 703.103L364.719 692.07L366.545 690.51L372.51 701.542L370.684 703.103ZM365.901 698.513L364.897 696.658L369.872 692.406L370.874 694.261L365.901 698.513ZM377.849 697.214C377.236 697.739 376.588 698.033 375.903 698.1C375.219 698.165 374.572 698.011 373.962 697.636C373.352 697.261 372.841 696.692 372.428 695.929C372.009 695.154 371.774 694.342 371.72 693.491C371.668 692.64 371.792 691.827 372.092 691.051C372.393 690.275 372.85 689.625 373.462 689.101C373.946 688.688 374.439 688.432 374.942 688.332C375.444 688.233 375.918 688.292 376.362 688.51C376.809 688.709 377.179 689.054 377.471 689.543L378.988 692.35C379.249 692.881 379.37 693.445 379.353 694.042C379.345 694.63 379.215 695.206 378.962 695.767C378.703 696.319 378.332 696.801 377.849 697.214ZM377.128 694.976C377.639 694.54 377.948 693.993 378.055 693.336C378.155 692.668 378.037 692.022 377.7 691.399C377.479 690.99 377.21 690.694 376.893 690.508C376.579 690.305 376.246 690.229 375.892 690.279C375.542 690.31 375.196 690.473 374.852 690.767C374.518 691.053 374.27 691.398 374.109 691.803C373.951 692.19 373.885 692.608 373.911 693.058C373.94 693.488 374.065 693.908 374.286 694.317C374.513 694.736 374.783 695.048 375.097 695.251C375.414 695.436 375.748 695.512 376.097 695.481C376.45 695.431 376.794 695.263 377.128 694.976ZM379.713 695.386L378.579 693.289L377.843 691.135L376.538 689.514L375.501 687.595L377.312 686.047L381.524 693.837L379.713 695.386ZM386.96 689.426C386.477 689.839 385.977 690.094 385.459 690.191C384.941 690.288 384.456 690.231 384.002 690.021C383.549 689.81 383.177 689.461 382.885 688.971L381.385 686.197C381.13 685.676 381.011 685.117 381.028 684.52C381.049 683.906 381.193 683.319 381.461 682.759C381.729 682.2 382.1 681.717 382.574 681.312C383.196 680.781 383.85 680.481 384.534 680.416C385.218 680.35 385.865 680.504 386.475 680.879C387.094 681.246 387.614 681.816 388.032 682.59C388.445 683.354 388.673 684.165 388.716 685.024C388.77 685.875 388.646 686.689 388.345 687.464C388.044 688.24 387.583 688.894 386.96 689.426ZM385.599 687.736C385.933 687.451 386.179 687.114 386.337 686.728C386.498 686.323 386.565 685.904 386.535 685.474C386.509 685.024 386.383 684.589 386.156 684.17C385.936 683.762 385.666 683.465 385.349 683.28C385.036 683.077 384.702 683 384.348 683.05C383.99 683.09 383.643 683.253 383.309 683.538C382.975 683.824 382.726 684.169 382.565 684.575C382.407 684.961 382.341 685.38 382.367 685.829C382.396 686.26 382.522 686.68 382.743 687.088C382.97 687.507 383.24 687.819 383.553 688.023C383.87 688.208 384.209 688.28 384.568 688.241C384.921 688.19 385.264 688.022 385.599 687.736ZM383.139 692.457L376.834 680.795L378.659 679.235L381.79 685.025L382.495 687.158L383.816 688.811L384.951 690.908L383.139 692.457ZM394.581 682.912C393.903 683.492 393.194 683.838 392.454 683.952C391.717 684.047 391.021 683.927 390.364 683.592C389.711 683.238 389.178 682.68 388.765 681.916C388.353 681.153 388.141 680.335 388.132 679.463C388.116 678.58 388.287 677.727 388.642 676.903C388.993 676.069 389.503 675.366 390.172 674.795C390.859 674.207 391.571 673.866 392.307 673.771C393.047 673.657 393.741 673.772 394.388 674.115C395.03 674.447 395.557 674.995 395.97 675.758C396.382 676.521 396.6 677.351 396.621 678.244C396.636 679.126 396.469 679.986 396.119 680.819C395.771 681.635 395.259 682.332 394.581 682.912ZM393.503 680.956C393.846 680.662 394.102 680.318 394.269 679.924C394.44 679.511 394.51 679.089 394.481 678.658C394.456 678.208 394.332 677.779 394.111 677.371C393.891 676.961 393.621 676.665 393.304 676.481C392.986 676.295 392.651 676.229 392.298 676.279C391.939 676.318 391.588 676.485 391.244 676.778C390.91 677.065 390.662 677.41 390.501 677.815C390.334 678.209 390.26 678.626 390.28 679.065C390.3 679.504 390.421 679.927 390.641 680.336C390.862 680.745 391.135 681.047 391.457 681.243C391.775 681.427 392.113 681.499 392.472 681.46C392.825 681.41 393.168 681.242 393.503 680.956ZM403.295 675.227L399.816 673.579L399.266 673.578L394.318 671.51L396.477 669.664L399.651 671.126L400.165 671.134L405.441 673.393L403.295 675.227ZM398.39 679.42L398.728 672.622L400.55 673.164L400.453 677.657L398.39 679.42ZM400.845 672.204L399.005 671.701L399.055 667.46L401.103 665.709L400.845 672.204Z" fill="white"/>
</g>
<defs>
<filter id="filter0_ii_1323_6842" x="3.29061" y="6.09334" width="437.434" height="505.828" filterUnits="userSpaceOnUse" color-interpolation-filters="sRGB">
<feFlood flood-opacity="0" result="BackgroundImageFix"/>
<feBlend mode="normal" in="SourceGraphic" in2="BackgroundImageFix" result="shape"/>
<feColorMatrix in="SourceAlpha" type="matrix" values="0 0 0 0 0 0 0 0 0 0 0 0 0 0 0 0 0 0 127 0" result="hardAlpha"/>
<feOffset dx="-0.515054" dy="-0.515054"/>
<feGaussianBlur stdDeviation="0.386291"/>
<feComposite in2="hardAlpha" operator="arithmetic" k2="-1" k3="1"/>
<feColorMatrix type="matrix" values="0 0 0 0 0 0 0 0 0 0 0 0 0 0 0 0 0 0 0.36 0"/>
<feBlend mode="normal" in2="shape" result="effect1_innerShadow_1323_6842"/>
<feColorMatrix in="SourceAlpha" type="matrix" values="0 0 0 0 0 0 0 0 0 0 0 0 0 0 0 0 0 0 127 0" result="hardAlpha"/>
<feOffset dx="1.28764" dy="1.03011"/>
<feGaussianBlur stdDeviation="0.515054"/>
<feComposite in2="hardAlpha" operator="arithmetic" k2="-1" k3="1"/>
<feColorMatrix type="matrix" values="0 0 0 0 1 0 0 0 0 1 0 0 0 0 1 0 0 0 0.25 0"/>
<feBlend mode="normal" in2="effect1_innerShadow_1323_6842" result="effect2_innerShadow_1323_6842"/>
</filter>
<filter id="filter1_i_1323_6842" x="84.0721" y="120.979" width="57.5177" height="68.0851" filterUnits="userSpaceOnUse" color-interpolation-filters="sRGB">
<feFlood flood-opacity="0" result="BackgroundImageFix"/>
<feBlend mode="normal" in="SourceGraphic" in2="BackgroundImageFix" result="shape"/>
<feColorMatrix in="SourceAlpha" type="matrix" values="0 0 0 0 0 0 0 0 0 0 0 0 0 0 0 0 0 0 127 0" result="hardAlpha"/>
<feOffset dx="-0.772581" dy="-0.772581"/>
<feGaussianBlur stdDeviation="2"/>
<feComposite in2="hardAlpha" operator="arithmetic" k2="-1" k3="1"/>
<feColorMatrix type="matrix" values="0 0 0 0 0 0 0 0 0 0 0 0 0 0 0 0 0 0 0.25 0"/>
<feBlend mode="normal" in2="shape" result="effect1_innerShadow_1323_6842"/>
</filter>
<filter id="filter2_ii_1323_6842" x="205.25" y="265.235" width="459.074" height="519.765" filterUnits="userSpaceOnUse" color-interpolation-filters="sRGB">
<feFlood flood-opacity="0" result="BackgroundImageFix"/>
<feBlend mode="normal" in="SourceGraphic" in2="BackgroundImageFix" result="shape"/>
<feColorMatrix in="SourceAlpha" type="matrix" values="0 0 0 0 0 0 0 0 0 0 0 0 0 0 0 0 0 0 127 0" result="hardAlpha"/>
<feOffset dx="-0.515054" dy="-0.515054"/>
<feGaussianBlur stdDeviation="0.386291"/>
<feComposite in2="hardAlpha" operator="arithmetic" k2="-1" k3="1"/>
<feColorMatrix type="matrix" values="0 0 0 0 0 0 0 0 0 0 0 0 0 0 0 0 0 0 0.36 0"/>
<feBlend mode="normal" in2="shape" result="effect1_innerShadow_1323_6842"/>
<feColorMatrix in="SourceAlpha" type="matrix" values="0 0 0 0 0 0 0 0 0 0 0 0 0 0 0 0 0 0 127 0" result="hardAlpha"/>
<feOffset dx="1.28764" dy="1.03011"/>
<feGaussianBlur stdDeviation="0.515054"/>
<feComposite in2="hardAlpha" operator="arithmetic" k2="-1" k3="1"/>
<feColorMatrix type="matrix" values="0 0 0 0 1 0 0 0 0 1 0 0 0 0 1 0 0 0 0.25 0"/>
<feBlend mode="normal" in2="effect1_innerShadow_1323_6842" result="effect2_innerShadow_1323_6842"/>
</filter>
<filter id="filter3_i_1323_6842" x="285.526" y="559.168" width="60.2472" height="69.2814" filterUnits="userSpaceOnUse" color-interpolation-filters="sRGB">
<feFlood flood-opacity="0" result="BackgroundImageFix"/>
<feBlend mode="normal" in="SourceGraphic" in2="BackgroundImageFix" result="shape"/>
<feColorMatrix in="SourceAlpha" type="matrix" values="0 0 0 0 0 0 0 0 0 0 0 0 0 0 0 0 0 0 127 0" result="hardAlpha"/>
<feOffset dx="-0.772581" dy="-0.772581"/>
<feGaussianBlur stdDeviation="2"/>
<feComposite in2="hardAlpha" operator="arithmetic" k2="-1" k3="1"/>
<feColorMatrix type="matrix" values="0 0 0 0 0 0 0 0 0 0 0 0 0 0 0 0 0 0 0.25 0"/>
<feBlend mode="normal" in2="shape" result="effect1_innerShadow_1323_6842"/>
</filter>
<radialGradient id="paint0_radial_1323_6842" cx="0" cy="0" r="1" gradientUnits="userSpaceOnUse" gradientTransform="translate(-7.58836 271.883) rotate(0.76033) scale(414.841 339.462)">
<stop stop-color="white" stop-opacity="0.3"/>
<stop offset="1" stop-color="white" stop-opacity="0"/>
</radialGradient>
<linearGradient id="paint1_linear_1323_6842" x1="95.0381" y1="118.667" x2="131.241" y2="186.073" gradientUnits="userSpaceOnUse">
<stop stop-color="#ABABAB"/>
<stop offset="0.3125" stop-color="white"/>
<stop offset="0.630208" stop-color="#BDBDBD"/>
<stop offset="1" stop-color="#5E5E5E"/>
</linearGradient>
<linearGradient id="paint2_linear_1323_6842" x1="96.1304" y1="122.139" x2="135.147" y2="183.977" gradientUnits="userSpaceOnUse">
<stop stop-color="#7D7D7D"/>
<stop offset="0.494792" stop-color="white"/>
<stop offset="1" stop-color="#1C1C1C"/>
</linearGradient>
<radialGradient id="paint3_radial_1323_6842" cx="0" cy="0" r="1" gradientUnits="userSpaceOnUse" gradientTransform="translate(332.245 802.632) rotate(-67.2499) scale(526.801 274.725)">
<stop stop-color="white" stop-opacity="0.3"/>
<stop offset="1" stop-color="white" stop-opacity="0"/>
</radialGradient>
<linearGradient id="paint4_linear_1323_6842" x1="283.759" y1="594.792" x2="343.412" y2="600.384" gradientUnits="userSpaceOnUse">
<stop stop-color="#ABABAB"/>
<stop offset="0.3125" stop-color="white"/>
<stop offset="0.630208" stop-color="#BDBDBD"/>
<stop offset="1" stop-color="#5E5E5E"/>
</linearGradient>
<linearGradient id="paint5_linear_1323_6842" x1="286.507" y1="595.473" x2="344.183" y2="598.438" gradientUnits="userSpaceOnUse">
<stop stop-color="#7D7D7D"/>
<stop offset="0.494792" stop-color="white"/>
<stop offset="1" stop-color="#1C1C1C"/>
</linearGradient>
<clipPath id="clip0_1323_6842">
<rect width="669" height="791" fill="white"/>
</clipPath>
</defs>
</svg>
