<svg width="164" height="32" viewBox="0 0 164 32" fill="none" xmlns="http://www.w3.org/2000/svg">
<path d="M43.8154 32.0001V7.4678H47.7821V9.60896C48.3729 8.83398 49.126 8.2072 49.985 7.77565C50.844 7.34409 51.7864 7.11898 52.7417 7.11719C57.2684 7.11719 60.6751 10.7679 60.6751 15.9896C60.6751 21.2114 57.2684 24.862 52.7417 24.862C51.7864 24.8602 50.844 24.6351 49.985 24.2036C49.126 23.772 48.3729 23.1452 47.7821 22.3703V31.9894L43.8154 32.0001ZM56.7084 16.0003C56.7084 12.9278 54.7899 10.8803 52.244 10.8803C49.698 10.8803 47.7821 12.9278 47.7821 16.0003C47.7821 19.0729 49.698 21.1177 52.244 21.1177C54.7899 21.1177 56.711 19.0702 56.711 16.0003H56.7084Z" fill="#41A8ED"/>
<path d="M66.228 17.3656C66.6584 19.8574 68.245 21.2892 70.6899 21.2892C72.4425 21.2892 73.4665 20.6068 73.9954 19.4157H78.2965C77.3036 22.9647 74.4284 24.8757 70.5187 24.8757C65.7898 24.8757 62.3184 21.225 62.3184 16.0033C62.3184 10.7815 65.7898 7.13086 70.5187 7.13086C75.2476 7.13086 78.7165 10.7815 78.7165 16.0033C78.7165 16.4797 78.6828 16.924 78.6491 17.3683L66.228 17.3656ZM66.2617 14.4643H74.7888C74.361 12.0769 72.8391 10.7173 70.5265 10.7173C68.2139 10.7173 66.6895 12.0823 66.2617 14.4643Z" fill="#41A8ED"/>
<path d="M88.9702 21.1171C89.5869 21.1146 90.1994 21.0116 90.785 20.8119V24.4626C89.938 24.7265 89.0589 24.8644 88.1742 24.8721C84.8998 24.8721 82.5198 23.5339 82.5198 18.9679V11.051H79.8779V7.4672H82.5224V2.77539H86.489V7.4672H90.7876V11.051H86.489V18.6949C86.489 20.3784 87.2513 21.1171 88.9702 21.1171Z" fill="#41A8ED"/>
<path d="M92.9346 19.9578C92.9346 12.6217 103.678 15.8977 103.678 12.4852C103.678 11.147 102.356 10.3681 100.637 10.3681C98.8224 10.3681 97.5624 11.3584 97.5624 13.2694H93.4323C93.4323 8.83185 96.9349 7.12695 100.637 7.12695C104.267 7.12695 107.637 8.66323 107.637 12.6538V24.5292H103.748V22.0053C102.691 24.018 100.772 24.8718 98.4905 24.8718C95.6464 24.8718 92.9346 23.4051 92.9346 19.9578ZM99.315 21.4486C101.63 21.4486 103.746 20.0836 103.746 17.4901V16.7059C101.101 17.8301 97.0049 17.4901 97.0049 19.6741C97.0024 20.8785 98.0005 21.4486 99.315 21.4486Z" fill="#41A8ED"/>
<path d="M128.139 15.9998C128.139 21.2215 124.732 24.8722 120.206 24.8722C119.25 24.87 118.308 24.6447 117.449 24.2132C116.59 23.7817 115.837 23.1551 115.246 22.3804V24.5216H111.279V0H115.246V9.61914C115.837 8.84446 116.59 8.21789 117.449 7.78637C118.308 7.35484 119.25 7.12955 120.206 7.12737C124.732 7.12737 128.139 10.778 128.139 15.9998ZM115.246 15.9998C115.246 19.0697 117.164 21.1171 119.708 21.1171C122.251 21.1171 124.185 19.0697 124.185 15.9998C124.185 12.9299 122.267 10.8797 119.721 10.8797C117.175 10.8797 115.246 12.9272 115.246 15.9998Z" fill="#41A8ED"/>
<path d="M129.79 15.9994C129.79 10.7776 133.391 7.12695 138.219 7.12695C143.046 7.12695 146.647 10.7776 146.647 15.9994C146.647 21.2211 143.043 24.8718 138.219 24.8718C133.394 24.8718 129.79 21.2211 129.79 15.9994ZM142.68 15.9994C142.68 12.9268 140.765 10.8793 138.219 10.8793C135.673 10.8793 133.757 12.9268 133.757 15.9994C133.757 19.0719 135.673 21.1167 138.219 21.1167C140.765 21.1167 142.68 19.0692 142.68 15.9994Z" fill="#41A8ED"/>
<path d="M146.811 24.5291L153.059 15.7263L147.142 7.4668H151.77L155.571 12.7581L159.042 7.4668H163.67L157.754 15.828L163.999 24.5291H159.372L155.208 18.7293L151.438 24.5291H146.811Z" fill="#41A8ED"/>
<path d="M10.0593 21.2604H24.0593V25.8264H9.67298C8.40249 25.8264 7.14444 25.568 5.97069 25.066C4.79694 24.564 3.73049 23.8282 2.83224 22.9007C1.93398 21.9731 1.22153 20.872 0.735569 19.6601C0.249609 18.4483 -0.000340176 17.1495 3.4747e-07 15.8379H4.81446C4.81343 16.5496 4.94834 17.2545 5.21146 17.9124C5.47458 18.5702 5.86074 19.168 6.34787 19.6717C6.835 20.1753 7.41353 20.5748 8.05037 20.8474C8.68721 21.12 9.36986 21.2604 10.0593 21.2604Z" fill="#41A8ED"/>
<path d="M28.8572 21.2633H24.0557C24.0552 19.9009 23.5571 18.5888 22.6609 17.5887C21.7647 16.5886 20.5362 15.974 19.2205 15.8676C19.1655 14.5941 18.6374 13.3914 17.7458 12.5094C16.8542 11.6275 15.6677 11.134 14.4329 11.1316C13.1981 11.1292 12.0098 11.618 11.115 12.4965C10.2202 13.375 9.68759 14.5756 9.62793 15.8489H4.81348C4.93391 13.6495 5.759 11.5538 7.15903 9.89133C8.55905 8.22884 10.4546 7.09387 12.5476 6.66485C14.6406 6.23583 16.8124 6.53711 18.7215 7.52131C20.6306 8.50551 22.1686 10.1168 23.0939 12.1019C24.8104 12.8922 26.2682 14.1792 27.2911 15.807C28.3139 17.4348 28.8579 19.3337 28.8572 21.274V21.2633Z" fill="#41A8ED"/>
<path d="M27.2735 6.46094C27.5875 6.46041 27.8945 6.55603 28.1557 6.73569C28.417 6.91535 28.6208 7.17098 28.7413 7.47024C28.8618 7.76949 28.8936 8.09892 28.8326 8.41684C28.7717 8.73475 28.6208 9.02686 28.399 9.25621C28.1772 9.48555 27.8945 9.64182 27.5866 9.70524C27.2788 9.76866 26.9596 9.73638 26.6695 9.61248C26.3795 9.48858 26.1315 9.27864 25.957 9.00922C25.7826 8.73979 25.6895 8.423 25.6895 8.09892C25.6908 7.6654 25.8581 7.24999 26.1548 6.94319C26.4515 6.63639 26.8536 6.46306 27.2735 6.46094ZM27.2735 6.84635C27.0333 6.84529 26.7982 6.91785 26.598 7.05484C26.3978 7.19183 26.2415 7.38708 26.1489 7.61586C26.0562 7.84465 26.0315 8.09666 26.0777 8.33999C26.1239 8.58332 26.2391 8.80701 26.4086 8.98272C26.578 9.15843 26.7942 9.27826 27.0297 9.32703C27.2652 9.37579 27.5095 9.3513 27.7315 9.25666C27.9535 9.16201 28.1433 9.00147 28.2768 8.79537C28.4104 8.58927 28.4817 8.34689 28.4817 8.09892C28.4824 7.93469 28.4516 7.77193 28.3912 7.61999C28.3308 7.46805 28.2419 7.32992 28.1297 7.21354C28.0174 7.09716 27.884 7.00481 27.7371 6.9418C27.5902 6.87878 27.4326 6.84635 27.2735 6.84635ZM26.6954 7.29331H27.3695C27.7246 7.29331 27.9295 7.47799 27.9295 7.74296C27.9333 7.8387 27.905 7.93286 27.8492 8.00946C27.7934 8.08606 27.7137 8.14037 27.6235 8.16316C27.8206 8.16316 27.9061 8.22472 27.9061 8.40672V8.92327H27.5146V8.50307C27.5146 8.37727 27.4758 8.3398 27.3409 8.3398H27.0817V8.92862H26.6902L26.6954 7.29331ZM27.3124 8.00525C27.4472 8.00525 27.5354 7.93566 27.5354 7.80719C27.5354 7.67872 27.4602 7.62787 27.2995 7.62787H27.0869V8.00525H27.3124Z" fill="#41A8ED"/>
</svg>
