<svg xmlns="http://www.w3.org/2000/svg" width="32" height="32" viewBox="0 0 141 92"><path fill="#41A8ED" d="M49.6 69.69h67.99v21.52H47.73a46.99 46.99 0 0 1-47-46.99h23.4A25.47 25.47 0 0 0 49.6 69.69"/><path fill="#41A8ED" d="M140.9 69.69H117.6A25.48 25.48 0 0 0 94.1 44.3a23.34 23.34 0 0 0-46.64-.08H24.13A46.59 46.59 0 0 1 38.6 12.9a46.74 46.74 0 0 1 74.32 13.63 47.32 47.32 0 0 1 27.99 43.16M133.4 7.32c.66 0 1.09-.33 1.09-.93 0-.6-.36-.85-1.15-.85h-1.03v1.78h1.1Zm-3-3.35h3.29c1.71 0 2.7.87 2.7 2.11 0 1.04-.63 1.83-1.48 2 .97 0 1.37.3 1.37 1.15v2.44h-1.9V9.66c0-.6-.19-.77-.84-.77h-1.23v2.78h-1.9v-7.7Zm2.81-2.1a5.87 5.87 0 0 0-5.81 5.9 5.86 5.86 0 0 0 5.81 5.87 5.84 5.84 0 0 0 5.82-5.88 5.83 5.83 0 0 0-5.82-5.9Zm0-1.82a7.73 7.73 0 0 1 7.7 7.71 7.74 7.74 0 0 1-7.7 7.7 7.76 7.76 0 0 1-7.7-7.7 7.74 7.74 0 0 1 7.7-7.7Z"/></svg>